<svg width="188" height="158" viewBox="0 0 188 158" fill="none" xmlns="http://www.w3.org/2000/svg">
<path d="M18.7687 79H0V63.3333H18.7687V79ZM78.3333 28.4123V0.666656H62.6667V28.4123H78.3333ZM40.7882 35.2743L23.8995 18.3857L12.8232 29.462L29.7118 46.3507L40.7882 35.2743ZM114.899 16.5057L98.3318 33.0653L109.408 44.1417L125.976 27.582L114.899 16.5057ZM23.2493 101.944L6.03167 116.976L16.2385 128.859L33.4562 113.827L23.2493 101.944ZM188 123.822C188 142.325 172.725 157.333 153.894 157.333H73.273C54.4417 157.333 39.1667 142.325 39.1667 123.822C39.1667 117.791 40.8195 112.151 43.663 107.27C36.1117 100.166 31.3333 90.1938 31.3333 79C31.3333 57.3643 48.8643 39.8333 70.5 39.8333C80.9105 39.8333 90.2635 43.9693 97.243 50.612C102.327 48.732 107.818 47.6667 113.583 47.6667C138.423 47.6667 158.648 66.8035 159.964 90.8753C175.898 93.6875 188 107.364 188 123.822ZM47 79C47 85.7367 49.8983 91.7527 54.4808 96.014C58.28 93.5387 62.5413 91.6978 67.2022 90.8753C67.8915 78.2637 73.8057 67.0463 82.8218 59.1817C79.2185 56.9257 75.059 55.5 70.5 55.5C57.5437 55.5 47 66.0437 47 79ZM172.333 123.822C172.333 107.56 156.831 103.315 145.003 104.145C146.71 92.8728 143.123 63.3333 113.583 63.3333C83.2292 63.3333 81.7643 93.523 82.1638 104.137C71.3147 103.479 54.8333 107.231 54.8333 123.822C54.8333 133.661 63.1053 141.667 73.273 141.667H153.886C164.061 141.667 172.333 133.661 172.333 123.822Z" fill="#E83A00" fill-opacity="0.95"/>
</svg>
