<svg width="121" height="56" viewBox="0 0 121 56" fill="none" xmlns="http://www.w3.org/2000/svg">
<path d="M11.5245 28.7326L4.86653 30.2558L4.11783 26.9833L10.7758 25.4601C10.8315 26.0121 10.9103 26.5675 11.0372 27.1222C11.1642 27.6769 11.3346 28.2113 11.5245 28.7326ZM13.7517 15.6325L7.95912 11.9969L6.17476 14.8399L11.9673 18.4755C12.4418 17.456 13.04 16.503 13.7517 15.6325ZM32.6219 13.7501L36.2575 7.95748L33.4145 6.17313L29.7789 11.9657C30.7967 12.4406 31.7501 13.0403 32.6219 13.7501ZM21.1326 11.0373C21.6873 10.9103 22.2427 10.8315 22.7947 10.7758L21.2715 4.11783L17.9989 4.86653L19.5222 11.5245C20.0435 11.3346 20.5779 11.1642 21.1326 11.0373ZM36.7303 19.5222C36.9201 20.0435 37.0906 20.5779 37.2175 21.1326C37.3444 21.6873 37.4233 22.2427 37.479 22.7947L44.1369 21.2715L43.3882 17.9989L36.7303 19.5222ZM15.6325 34.5031L11.9981 40.2937L14.8411 42.078L18.4755 36.2874C17.4577 35.8126 16.503 35.2148 15.6325 34.5031ZM21.8813 14.3098C16.4587 15.5504 13.0692 20.9509 14.3098 26.3735C15.5504 31.7961 20.9509 35.1856 26.3735 33.945C31.7961 32.7044 35.1856 27.3039 33.945 21.8813C32.7044 16.4587 27.3039 13.0692 21.8813 14.3098Z" fill="#E83A00" fill-opacity="0.95"/>
<path d="M25.44 26.7084C24.02 27.2484 22.92 28.0884 22.14 29.2284C21.36 30.3484 20.97 31.7284 20.97 33.3684C20.97 34.1084 21.04 34.6284 21.18 34.9284C21.32 35.2084 21.39 35.3684 21.39 35.4084C20.31 35.4084 19.5 35.1884 18.96 34.7484C18.44 34.2884 18.18 33.5384 18.18 32.4984C18.18 31.2184 18.7 29.9784 19.74 28.7784C20.8 27.5584 22.15 26.5784 23.79 25.8384C25.43 25.0784 27.07 24.6984 28.71 24.6984C28.99 24.6984 29.39 24.7184 29.91 24.7584L30.18 43.2084L36.48 24.8484H40.29L40.56 43.2084L46.86 24.8484H48.96L40.62 47.1984H36.3L35.94 31.9284L30.24 47.1984H25.92L25.44 26.7084ZM51.1474 47.3784C49.6674 47.3784 48.5174 46.9984 47.6974 46.2384C46.8774 45.4584 46.4674 44.2484 46.4674 42.6084C46.4674 41.2284 46.7374 39.7084 47.2774 38.0484C47.8174 36.3884 48.6974 34.9584 49.9174 33.7584C51.1374 32.5384 52.6874 31.9284 54.5674 31.9284C56.7674 31.9284 57.8674 32.8884 57.8674 34.8084C57.8674 35.9284 57.5474 36.9584 56.9074 37.8984C56.2674 38.8384 55.4174 39.5984 54.3574 40.1784C53.2974 40.7384 52.1674 41.0584 50.9674 41.1384C50.9274 41.7384 50.9074 42.1384 50.9074 42.3384C50.9074 43.3184 51.0774 43.9884 51.4174 44.3484C51.7574 44.6884 52.3074 44.8584 53.0674 44.8584C54.1474 44.8584 55.0674 44.6084 55.8274 44.1084C56.6074 43.6084 57.4574 42.8484 58.3774 41.8284H59.3974C57.1774 45.5284 54.4274 47.3784 51.1474 47.3784ZM51.2074 39.6984C51.9474 39.6584 52.6474 39.3984 53.3074 38.9184C53.9874 38.4384 54.5274 37.8284 54.9274 37.0884C55.3474 36.3484 55.5574 35.5684 55.5574 34.7484C55.5574 33.9284 55.3074 33.5184 54.8074 33.5184C54.0874 33.5184 53.3774 34.1484 52.6774 35.4084C51.9974 36.6684 51.5074 38.0984 51.2074 39.6984ZM61.9711 47.3784C60.8311 47.3784 59.8811 46.9884 59.1211 46.2084C58.3611 45.4284 57.9811 44.2084 57.9811 42.5484C57.9811 41.0684 58.2711 39.5184 58.8511 37.8984C59.4511 36.2584 60.3311 34.8784 61.4911 33.7584C62.6711 32.6184 64.0711 32.0484 65.6911 32.0484C66.5111 32.0484 67.1211 32.1884 67.5211 32.4684C67.9211 32.7484 68.1211 33.1184 68.1211 33.5784V33.7884L68.4511 32.1984H72.7711L70.6111 42.3984C70.5311 42.6984 70.4911 43.0184 70.4911 43.3584C70.4911 44.2184 70.9011 44.6484 71.7211 44.6484C72.2811 44.6484 72.7611 44.3884 73.1611 43.8684C73.5811 43.3484 73.9111 42.6684 74.1511 41.8284H75.4111C74.6711 43.9884 73.7511 45.4584 72.6511 46.2384C71.5711 46.9984 70.4811 47.3784 69.3811 47.3784C68.5411 47.3784 67.8611 47.1484 67.3411 46.6884C66.8411 46.2084 66.5411 45.5184 66.4411 44.6184C65.8611 45.4384 65.2111 46.1084 64.4911 46.6284C63.7911 47.1284 62.9511 47.3784 61.9711 47.3784ZM63.9211 44.4684C64.4211 44.4684 64.9111 44.2384 65.3911 43.7784C65.8911 43.2984 66.2311 42.6484 66.4111 41.8284L67.8511 35.0484C67.8511 34.7884 67.7511 34.5384 67.5511 34.2984C67.3511 34.0384 67.0411 33.9084 66.6211 33.9084C65.8211 33.9084 65.1011 34.3784 64.4611 35.3184C63.8211 36.2384 63.3211 37.3584 62.9611 38.6784C62.6011 39.9784 62.4211 41.1284 62.4211 42.1284C62.4211 43.1284 62.5611 43.7684 62.8411 44.0484C63.1411 44.3284 63.5011 44.4684 63.9211 44.4684ZM77.1321 47.3784C76.1721 47.3784 75.3921 47.0784 74.7921 46.4784C74.2121 45.8784 73.9221 44.9784 73.9221 43.7784C73.9221 43.2784 74.0021 42.6284 74.1621 41.8284L75.9621 33.3984H74.9721L75.2121 32.1984H76.2021L77.1021 28.0584L81.5421 27.4584L80.5221 32.1984H82.3221L82.0821 33.3984H80.2821L78.3621 42.3984C78.2821 42.6984 78.2421 43.0184 78.2421 43.3584C78.2421 43.7584 78.3321 44.0484 78.5121 44.2284C78.7121 44.3884 79.0321 44.4684 79.4721 44.4684C80.0521 44.4684 80.5921 44.2284 81.0921 43.7484C81.5921 43.2484 81.9521 42.6084 82.1721 41.8284H83.4321C82.6921 43.9884 81.7421 45.4584 80.5821 46.2384C79.4221 46.9984 78.2721 47.3784 77.1321 47.3784ZM92.9902 47.3784C91.7702 47.3784 90.8702 47.0584 90.2902 46.4184C89.7302 45.7584 89.4502 44.9484 89.4502 43.9884C89.4502 43.5684 89.5002 43.0984 89.6002 42.5784C89.7002 42.0384 89.8002 41.5184 89.9002 41.0184C90.0202 40.5184 90.1002 40.1984 90.1402 40.0584C90.3002 39.3584 90.4502 38.6684 90.5902 37.9884C90.7302 37.3084 90.8002 36.7584 90.8002 36.3384C90.8002 35.3184 90.4402 34.8084 89.7202 34.8084C89.2002 34.8084 88.7402 35.0684 88.3402 35.5884C87.9402 36.0884 87.6202 36.7484 87.3802 37.5684L85.3402 47.1984H81.0202L85.3702 26.7984L89.8102 26.1984L88.1902 33.7584C89.1902 32.6384 90.3602 32.0784 91.7002 32.0784C92.7202 32.0784 93.5302 32.3584 94.1302 32.9184C94.7302 33.4784 95.0302 34.3284 95.0302 35.4684C95.0302 36.0484 94.9602 36.6984 94.8202 37.4184C94.6802 38.1184 94.4802 38.9784 94.2202 39.9984C94.0602 40.6184 93.9102 41.2284 93.7702 41.8284C93.6502 42.4084 93.5902 42.8684 93.5902 43.2084C93.5902 43.6084 93.6802 43.9184 93.8602 44.1384C94.0402 44.3584 94.3502 44.4684 94.7902 44.4684C95.3902 44.4684 95.8702 44.2584 96.2302 43.8384C96.5902 43.3984 96.9502 42.7284 97.3102 41.8284H98.5702C97.8302 44.0284 96.9702 45.5084 95.9902 46.2684C95.0302 47.0084 94.0302 47.3784 92.9902 47.3784ZM101.597 47.3784C100.117 47.3784 98.9666 46.9984 98.1466 46.2384C97.3266 45.4584 96.9166 44.2484 96.9166 42.6084C96.9166 41.2284 97.1866 39.7084 97.7266 38.0484C98.2666 36.3884 99.1466 34.9584 100.367 33.7584C101.587 32.5384 103.137 31.9284 105.017 31.9284C107.217 31.9284 108.317 32.8884 108.317 34.8084C108.317 35.9284 107.997 36.9584 107.357 37.8984C106.717 38.8384 105.867 39.5984 104.807 40.1784C103.747 40.7384 102.617 41.0584 101.417 41.1384C101.377 41.7384 101.357 42.1384 101.357 42.3384C101.357 43.3184 101.527 43.9884 101.867 44.3484C102.207 44.6884 102.757 44.8584 103.517 44.8584C104.597 44.8584 105.517 44.6084 106.277 44.1084C107.057 43.6084 107.907 42.8484 108.827 41.8284H109.847C107.627 45.5284 104.877 47.3784 101.597 47.3784ZM101.657 39.6984C102.397 39.6584 103.097 39.3984 103.757 38.9184C104.437 38.4384 104.977 37.8284 105.377 37.0884C105.797 36.3484 106.007 35.5684 106.007 34.7484C106.007 33.9284 105.757 33.5184 105.257 33.5184C104.537 33.5184 103.827 34.1484 103.127 35.4084C102.447 36.6684 101.957 38.0984 101.657 39.6984ZM110.86 32.1984H115.18L114.79 34.0584C115.47 33.4584 116.08 32.9984 116.62 32.6784C117.18 32.3584 117.78 32.1984 118.42 32.1984C119.06 32.1984 119.56 32.4184 119.92 32.8584C120.3 33.2984 120.49 33.8284 120.49 34.4484C120.49 35.0284 120.3 35.5384 119.92 35.9784C119.54 36.4184 119.01 36.6384 118.33 36.6384C117.89 36.6384 117.59 36.5384 117.43 36.3384C117.29 36.1184 117.18 35.8084 117.1 35.4084C117.04 35.1484 116.98 34.9584 116.92 34.8384C116.86 34.7184 116.75 34.6584 116.59 34.6584C116.17 34.6584 115.81 34.7484 115.51 34.9284C115.23 35.0884 114.86 35.3784 114.4 35.7984L112 47.1984H107.68L110.86 32.1984Z" fill="white"/>
</svg>
